<?xml version="1.0" encoding="utf-8"?>
<!-- Generator: Adobe Illustrator 19.0.0, SVG Export Plug-In . SVG Version: 6.00 Build 0)  -->
<svg version="1.1" id="Layer_1" xmlns="http://www.w3.org/2000/svg" xmlns:xlink="http://www.w3.org/1999/xlink" x="0px" y="0px"
	 width="300px" height="300px" viewBox="-155 247 300 300" style="enable-background:new -155 247 300 300;" xml:space="preserve">
<style type="text/css">
	.st0{fill:#2f2f2f;}
</style>
<path class="st0" d="M123.9771042,452.0532837c-1.9141693-3.0170593-3.6494293-3.9552002-10.9530182-7.8999939l-1.6841278-0.9097595
	c-1.447464-0.783844-2.8939819-1.5714722-4.3423996-2.3591309c-12.4979858-6.8027954-25.4210358-13.8365784-39.2358475-18.4534912
	l-0.9495087-0.3209229c-5.3250427-1.8166809-11.3591423-3.8709717-18.3190918,5.3988647
	c-6.258461,8.3165283-13.0622063,16.3613892-20.220953,23.9111023c-2.2284718,2.2029114-5.6942444,2.6894836-8.4443321,1.1824036
	l-0.3616295-0.1741943c-18.0691662-7.5904236-34.663887-18.0341492-49.3250275-31.0414429
	c-13.3192291-12.5396423-25.040947-26.7298279-34.8409157-42.1771545c-0.2915726-0.4596252-0.8983917-1.4157715-0.9992142-2.6658325
	c-0.1760788-2.1830444,1.268074-4.2046509,2.635067-5.9280701c2.9285355-3.6911011,5.2691879-6.5415344,7.1497574-8.8320007
	c5.1025696-6.2139893,7.2141266-8.785614,8.4713097-13.0200806c1.2013283-4.0508118,1.2174225-8.5063477,0.0468597-13.2425537
	l-0.0227203,0.0056763c-1.4290047-6.558075-13.7428665-37.8380737-16.9572983-45.3584595
	c-2.5768433-6.7729797-8.6677475-11.51297-17.1617737-13.352356c-11.5281219-2.4968567-24.7422714,0.9286804-32.1405334,8.3269348
	l-0.0728912,0.0752563c-32.128212,33.9179077-30.9306717,75.7026672,3.4274368,120.789917
	c28.5639877,38.6763611,62.7469673,69.2103882,101.598465,90.7557373
	c30.9415646,17.1584473,51.8819923,21.2301025,66.3575821,21.229187c4.8299332,0,8.9422836-0.4534912,12.4629669-1.0252686
	c20.4746628-3.3275757,37.0035858-12.5737305,46.5422745-26.0344849
	C118.3661728,488.4935913,133.2583008,466.6784363,123.9771042,452.0532837z"/>
</svg>
