<?xml version="1.0" encoding="utf-8"?>
<!-- Generator: Adobe Illustrator 19.0.0, SVG Export Plug-In . SVG Version: 6.00 Build 0)  -->
<svg version="1.1" id="Layer_1" xmlns="http://www.w3.org/2000/svg" xmlns:xlink="http://www.w3.org/1999/xlink" x="0px" y="0px"
	 width="300px" height="300px" viewBox="-155 247 300 300" style="enable-background:new -155 247 300 300;" xml:space="preserve">
<style type="text/css">
	.st0{fill:#2f2f2f;}
</style>
<path class="st0" d="M-137.1000061,358.8499756v115.7416687c0,12.348175,10.0101776,22.3583679,22.358345,22.3583679h219.4833374
	c12.3481674,0,22.3583298-10.0101929,22.3583298-22.3583374V358.8499756c-2.5,2.7000122-5.3000031,5.2999878-8.1999969,7.7000122
	l-92.3000031,75.5c-18.2999992,15-44.7999992,15-63.0999985,0l-92.3000183-75.5
	C-131.8999939,364.1500244-134.6000061,361.5499878-137.1000061,358.8499756z M-136.1215515,303.8642273
	c-0.671524,1.5178223-0.8999634,3.2041321-0.7552948,4.8575439c1.4046326,16.0533752,9.1118164,30.7828979,21.676857,41.0282288
	l92.3000031,75.5c10.3000002,8.5,25.2999992,8.5,35.7000008,0l92.3000031-75.5
	c12.561264-10.3388672,20.2675934-25.0658569,21.6755829-41.0235291c0.1461792-1.6567688-0.0823517-3.3470154-0.757019-4.8672485
	c-1.7928619-4.039856-5.8836899-6.8092346-10.6185608-6.8092346h-241
	C-130.256546,297.0499878-134.3329773,299.8216553-136.1215515,303.8642273z"/>
</svg>
