<?xml version="1.0" encoding="utf-8"?>
<!-- Generator: Adobe Illustrator 19.0.0, SVG Export Plug-In . SVG Version: 6.00 Build 0)  -->
<svg version="1.1" id="Layer_1" xmlns="http://www.w3.org/2000/svg" xmlns:xlink="http://www.w3.org/1999/xlink" x="0px" y="0px"
	 width="300px" height="300px" viewBox="-155 247 300 300" style="enable-background:new -155 247 300 300;" xml:space="preserve">
<style type="text/css">
	.st0{fill:#2f2f2f;}
</style>
<path class="st0" d="M89.8102646,326.2330933C73.4995728,290.1265259,37.1738243,265-5.0205593,265
	c-41.4441071,0-77.2265015,24.2409668-93.941864,59.317627c-10.2214355,21.4493713-10.8763962,46.2025146-2.3945389,68.3973694
	c1.8361816,4.8048401,3.983139,9.9590149,6.4908676,15.3559875c3.5579529,7.657196,9.6241379,19.6215515,27.8720779,44.4615173
	c6.4614143,8.7955322,14.436882,19.1913757,24.3876572,31.6015015C-33.6094246,495.3545227-20.8971272,510.8438416-5.0205593,529
	c15.8765688-18.1561584,28.5889301-33.6454773,37.5858078-44.8659973
	c9.9507751-12.4101257,17.9263077-22.8059692,24.3877182-31.6015625
	c18.2480011-24.8399048,24.3140564-36.8042603,27.8720093-44.4614563
	c2.5131912-5.4087219,4.6640396-10.5735779,6.5028687-15.3873291
	C99.5424881,371.1791077,99.2872238,347.2119751,89.8102646,326.2330933z M-4.7575021,406.3904114
	c-29.2018108,0-52.8745346-22.4771729-52.8745346-50.2041626c0-27.7269287,23.6727257-50.204071,52.8745384-50.204071
	s52.8745346,22.4771423,52.8745346,50.204071C48.1170349,383.9132385,24.4443092,406.3904114-4.7575021,406.3904114z"/>
</svg>
