<?xml version="1.0" encoding="utf-8"?>
<!-- Generator: Adobe Illustrator 25.4.1, SVG Export Plug-In . SVG Version: 6.00 Build 0)  -->
<svg version="1.1" id="Layer_1" xmlns="http://www.w3.org/2000/svg" xmlns:xlink="http://www.w3.org/1999/xlink" x="0px" y="0px"
	 width="267.7603455px" height="116.5063782px" viewBox="0 0 267.7603455 116.5063782"
	 style="enable-background:new 0 0 267.7603455 116.5063782;" xml:space="preserve">
<style type="text/css">
	.Drop_x0020_Shadow{fill:none;}
	.Round_x0020_Corners_x0020_2_x0020_pt{fill:#FFFFFF;stroke:#231F20;stroke-miterlimit:10;}
	.Live_x0020_Reflect_x0020_X{fill:none;}
	.Bevel_x0020_Soft{fill:url(#SVGID_1_);}
	.Dusk{fill:#FFFFFF;}
	.Foliage_GS{fill:#FFDD00;}
	.Pompadour_GS{fill-rule:evenodd;clip-rule:evenodd;fill:#44ACE1;}
	.st0{fill:#B4B4B3;}
</style>
<linearGradient id="SVGID_1_" gradientUnits="userSpaceOnUse" x1="-172.0102386" y1="-337.4004822" x2="-171.3031311" y2="-336.6933594">
	<stop  offset="0" style="stop-color:#DEDFE3"/>
	<stop  offset="0.1783311" style="stop-color:#DADBDF"/>
	<stop  offset="0.3611409" style="stop-color:#CECFD3"/>
	<stop  offset="0.546043" style="stop-color:#B9BCBF"/>
	<stop  offset="0.7323959" style="stop-color:#9CA0A2"/>
	<stop  offset="0.9181451" style="stop-color:#787D7E"/>
	<stop  offset="1" style="stop-color:#656B6C"/>
</linearGradient>
<g>
	<g>
		<g>
			<path d="M38.7190247,41.7331238c-1.3510132,0-2.4150391,0.4550171-3.1940308,1.3630066
				c-0.7789917,0.9100037-1.1690063,2.0390015-1.1690063,3.3890076v28.2019958c0,2.5979919-0.5969849,4.8439941-1.7910156,6.7390137
				c-1.1959839,1.8959961-2.7539673,3.3629761-4.6749878,4.401001c-1.9219971,1.039978-4,1.5589905-6.2319946,1.5589905
				c-2.0780029,0-4.0390015-0.5190125-5.882019-1.5589905c-1.8439636-1.0380249-3.3249512-2.5050049-4.4409485-4.401001
				c-1.1170044-1.8950195-1.6750183-4.1410217-1.6750183-6.7390137V46.4851379c0-1.3500061-0.4799805-2.4790039-1.440979-3.3890076
				c-0.9620056-0.9079895-2.0390015-1.3630066-3.2330017-1.3630066c-1.4550171,0-2.6490173,0.4550171-3.5840149,1.3630066
				C0.4680176,44.006134,0,45.1351318,0,46.4851379v28.2019958c0,4.3120117,0.9219971,8.1289978,2.7660217,11.4519958
				c1.8429871,3.3250122,4.3880005,5.9210205,7.6340027,7.7910156c3.2459717,1.868988,6.9989929,2.8039856,11.2579651,2.8039856
				c4.2579956,0,7.9970093-0.9349976,11.2180176-2.8039856c3.2199707-1.8699951,5.7520142-4.4660034,7.5960083-7.7910156
				c1.8429565-3.322998,2.7659912-7.1399841,2.7659912-11.4519958V46.4851379c0-1.3500061-0.4169922-2.4790039-1.2470093-3.3890076
				C41.1600037,42.1881409,40.0690002,41.7331238,38.7190247,41.7331238"/>
		</g>
		<g>
			<path d="M86.0068665,60.001709c-1.8189697-1.894989-3.9089966-3.3889771-6.2719727-4.4789734
				c-2.3640137-1.0910034-4.8690186-1.6360168-7.5180054-1.6360168c-3.427002,0-6.6740112,0.8829956-9.7380371,2.6490173
				c-3.0650024,1.7659912-5.5439453,4.2979736-7.4400024,7.5950012c-1.8959961,3.2989807-2.8429565,7.2839966-2.8429565,11.9589844
				c0,4,0.8689575,7.5830078,2.6099854,10.7510071c1.7390137,3.1679993,4.2319946,5.6749878,7.4790039,7.5180054
				c3.2449951,1.8439941,7.0759888,2.7649841,11.4909668,2.7649841c2.5960083,0,5.1150513-0.428009,7.5560303-1.2850037
				s4.3359985-1.8569946,5.6879883-3c1.4530029-1.1409912,2.1810303-2.414978,2.1810303-3.8169861
				c0-1.0379944-0.3779907-1.947998-1.1300049-2.7270203c-0.7529907-0.7789917-1.7020264-1.1679993-2.8430176-1.1679993
				c-0.8319702,0-1.7139893,0.2340088-2.6489868,0.7010193c-0.5720215,0.3119812-1.2080078,0.6889954-1.9089966,1.1300049
				c-0.7009888,0.440979-1.6240234,0.8179932-2.7650146,1.1289978c-1.1430054,0.3119812-2.6760254,0.4679871-4.5969849,0.4679871
				c-2.0780029,0-4.0390015-0.5069885-5.882019-1.519989c-1.8439941-1.0119934-3.3499756-2.4930115-4.5180054-4.4400024
				c-0.6829834-1.1380005-1.1599731-2.4259949-1.4439697-3.8560181h25.7109985c1.2470093,0,2.3379517-0.3899841,3.2719727-1.1689758
				c0.9349976-0.7790222,1.4279785-1.7920227,1.4810181-3.0379944c0-2.8050232-0.5339966-5.45401-1.5980225-7.9470215
				C89.2648621,64.0917358,87.8238831,61.8987122,86.0068665,60.001709 M64.3489075,65.1827087
				c0.9859619-0.9859924,2.1549683-1.6869812,3.5059814-2.1029968c1.3499756-0.414978,2.8040161-0.6239929,4.3619995-0.6239929
				c1.6099854,0,3.1289673,0.3510132,4.5579834,1.052002c1.4279785,0.7009888,2.6220093,1.6499939,3.5839844,2.8439941
				c0.960022,1.1950073,1.4920044,2.5450134,1.5970459,4.0509949v0.5450134H61.5428772
				c0.1259766-0.6430054,0.2800293-1.243988,0.4689941-1.7919922
				C62.5828552,67.4947205,63.3618469,66.1697388,64.3489075,65.1827087"/>
		</g>
		<g>
			<path d="M134.2296448,38.6951294c-1.3509521,0-2.46698,0.4549866-3.3499756,1.3629761
				c-0.8840332,0.9090271-1.3240356,2.0390015-1.3240356,3.3890076v15.2950134
				c-0.4559937-0.4259949-0.9609985-0.8500061-1.5199585-1.2720032c-1.3760376-1.0379944-2.9990234-1.894989-4.8690186-2.5710144
				c-1.8690186-0.6739807-3.9219971-1.0130005-6.1539917-1.0130005c-3.4799805,0-6.6489868,0.9230042-9.5050049,2.7660217
				c-2.8560181,1.8439941-5.1289673,4.3889771-6.815979,7.6349792c-1.6890259,3.2460022-2.5320435,6.9990234-2.5320435,11.257019
				c0,4.2070007,0.8430176,7.9339905,2.5320435,11.1789856c1.6870117,3.2470093,3.9849854,5.7920227,6.8939819,7.6350098
				c2.9089966,1.8439941,6.1550293,2.7659912,9.7390137,2.7659912c1.9729614,0,3.8029785-0.3249817,5.4920044-0.973999
				c1.6870117-0.6489868,3.1549683-1.440979,4.4019775-2.3760071c0.9229736-0.6919861,1.7020264-1.3909912,2.3400269-2.0979919
				c0.0180054,1.3139954,0.4559937,2.4169922,1.3209839,3.3049927c0.8829956,0.9100037,1.9990234,1.3640137,3.3499756,1.3640137
				c1.3500366,0,2.4660034-0.45401,3.3500366-1.3640137c0.881958-0.9079895,1.3239746-2.0369873,1.3239746-3.3880005V43.447113
				c0-1.4019775-0.4420166-2.5440063-1.3239746-3.4279785C136.6956482,39.1371155,135.5796814,38.6951294,134.2296448,38.6951294
				 M128.5036926,82.1661072c-0.9620361,1.9740295-2.2980347,3.5320129-4.0120239,4.6740112
				c-1.7139893,1.1430054-3.7139893,1.7139893-5.9990234,1.7139893c-2.2340088,0-4.2069702-0.5709839-5.9209595-1.7139893
				c-1.7140503-1.1419983-3.0510254-2.6999817-4.0120239-4.6740112c-0.9619751-1.9729919-1.440979-4.1799927-1.440979-6.6219788
				c0-2.4930115,0.4790039-4.7250061,1.440979-6.7000122c0.9609985-1.9729919,2.2979736-3.5310059,4.0120239-4.6739807
				c1.7139893-1.1420288,3.6869507-1.7140198,5.9209595-1.7140198c2.2850342,0,4.2850342,0.571991,5.9990234,1.7140198
				c1.7139893,1.1429749,3.0499878,2.7009888,4.0120239,4.6739807c0.9599609,1.9750061,1.440979,4.2070007,1.440979,6.7000122
				C129.9446716,77.9861145,129.4636536,80.1931152,128.5036926,82.1661072"/>
		</g>
		<g>
			<path d="M180.8945618,60.001709c-1.8189697-1.894989-3.9089966-3.3889771-6.2719727-4.4789734
				c-2.3640137-1.0910034-4.8690186-1.6360168-7.5180054-1.6360168c-3.427002,0-6.6740112,0.8829956-9.7380371,2.6490173
				c-3.0650024,1.7659912-5.5439453,4.2979736-7.4400024,7.5950012c-1.8959961,3.2989807-2.8429565,7.2839966-2.8429565,11.9589844
				c0,4,0.8689575,7.5830078,2.6099854,10.7510071c1.7390137,3.1679993,4.2319946,5.6749878,7.4790039,7.5180054
				c3.2449951,1.8439941,7.0759888,2.7649841,11.4909668,2.7649841c2.5960083,0,5.1150513-0.428009,7.5560303-1.2850037
				s4.3359985-1.8569946,5.6879883-3c1.4530029-1.1409912,2.1810303-2.414978,2.1810303-3.8169861
				c0-1.0379944-0.3779907-1.947998-1.1300049-2.7270203c-0.7529907-0.7789917-1.7020264-1.1679993-2.8430176-1.1679993
				c-0.8319702,0-1.7139893,0.2340088-2.6489868,0.7010193c-0.5720215,0.3119812-1.2080078,0.6889954-1.9089966,1.1300049
				c-0.7009888,0.440979-1.6240234,0.8179932-2.7650146,1.1289978c-1.1430054,0.3119812-2.6760254,0.4679871-4.5969849,0.4679871
				c-2.0780029,0-4.0390015-0.5069885-5.882019-1.519989c-1.8439941-1.0119934-3.3499756-2.4930115-4.5180054-4.4400024
				c-0.6829834-1.1380005-1.1599731-2.4259949-1.4439697-3.8560181h25.7109985c1.2470093,0,2.3379517-0.3899841,3.2719727-1.1689758
				c0.9349976-0.7790222,1.4279785-1.7920227,1.4810181-3.0379944c0-2.8050232-0.5339966-5.45401-1.5980225-7.9470215
				C184.1525574,64.0917358,182.7115784,61.8987122,180.8945618,60.001709 M159.2366028,65.1827087
				c0.9859619-0.9859924,2.1549683-1.6869812,3.5059814-2.1029968c1.3499756-0.414978,2.8040161-0.6239929,4.3619995-0.6239929
				c1.6099854,0,3.1289673,0.3510132,4.5579834,1.052002c1.4279785,0.7009888,2.6220093,1.6499939,3.5839844,2.8439941
				c0.960022,1.1950073,1.4920044,2.5450134,1.5970459,4.0509949v0.5450134h-20.4130249
				c0.1259766-0.6430054,0.2800293-1.243988,0.4689941-1.7919922
				C157.4705505,67.4947205,158.2495422,66.1697388,159.2366028,65.1827087"/>
		</g>
		<g>
			<path class="st0" d="M226.6250916,54.7433167c-1.8700562-0.1029968-3.2460327,0.8840027-4.1290283,2.960022
				l-10.6619873,24.5220032l-10.7620239-24.598999c-0.4160156-0.9860229-1.0390015-1.7270203-1.8699951-2.2210083
				c-0.8309937-0.4930115-1.7399902-0.7399902-2.7260132-0.7399902c-1.4029541,0-2.5199585,0.4549866-3.3499756,1.3629761
				c-0.8320312,0.9100037-1.2470093,1.8310242-1.2470093,2.7660217c0,0.571991,0.0650024,1.0650024,0.1950073,1.4799805
				c0.1289673,0.4170227,0.2459717,0.7539978,0.3510132,1.0130005l14.4899902,32.0970154
				c0.46698,1.0910034,1.1549683,1.8970032,2.0639648,2.414978c0.9090576,0.5200195,1.8570557,0.7010193,2.8440552,0.5460205
				c1.8169556-0.1040039,3.1419678-1.0910034,3.9729614-2.9609985l14.5679932-32.0970154
				c0.1560059-0.3629761,0.2990112-0.7519836,0.4290161-1.1690063c0.1290283-0.414978,0.1950073-0.8039856,0.1950073-1.1679993
				c0-1.1940002-0.4030151-2.1940002-1.2080078-2.9989929C228.9740906,55.1463318,227.9230652,54.7433167,226.6250916,54.7433167"/>
		</g>
		<g>
			<path d="M266.5133972,79.0108032c-0.8310547-1.4799805-1.9220581-2.6879883-3.2720337-3.6229858
				c-1.3510132-0.9339905-2.8309937-1.6870117-4.440979-2.2590027c-1.6100464-0.5709839-3.1940308-1.0639954-4.7520142-1.480011
				c-1.507019-0.414978-2.9210205-0.8439941-4.2460327-1.2849731c-1.3239746-0.4410095-2.3759766-1.0130005-3.1549683-1.7140198
				c-0.7789917-0.7019958-1.1680298-1.6479797-1.1680298-2.8439941c0-1.2969971,0.3370361-2.2460022,1.0120239-2.8429871
				c0.6749878-0.5970154,1.46698-0.9860229,2.3759766-1.1690063c0.9090576-0.1809998,1.7530518-0.2730103,2.5320435-0.2730103
				c1.9209595,0,3.6229858,0.3390198,5.1029663,1.0130005c1.4800415,0.6759949,2.6610107,1.5849915,3.5450439,2.7269897
				c0.6739502,0.6230164,1.5309448,0.9740295,2.5709839,1.0510254c1.0379639,0.0780029,1.9469604-0.1940002,2.7260132-0.8180237
				c1.0910034-0.8819885,1.5839844-1.868988,1.480957-2.9599915c-0.1049805-1.0910034-0.4419556-2.0249939-1.0130005-2.8049927
				c-1.0910034-1.4020081-2.4419556-2.5320129-4.0509644-3.3880005c-1.6110229-0.8569946-3.2990112-1.4809875-5.0640259-1.8699951
				c-1.7659912-0.3900146-3.4550171-0.5840149-5.0639648-0.5840149c-2.5450439,0-4.973999,0.4940186-7.2839966,1.480011
				c-2.3120117,0.9869995-4.1950073,2.3890076-5.6480103,4.2070007c-1.4550171,1.8179932-2.1820068,4.0249939-2.1820068,6.6220093
				c0,2.2859802,0.440979,4.1809998,1.3250122,5.6869812c0.881958,1.507019,2.0249634,2.7140198,3.4279785,3.6220093
				c1.4019775,0.9100037,2.9470215,1.6499939,4.6350098,2.2210083c1.6870117,0.571991,3.3369751,1.0899963,4.9469604,1.5579834
				c1.5580444,0.4160156,2.9730225,0.8569946,4.2460327,1.3240051c1.2719727,0.4679871,2.2979736,1.0400085,3.0769653,1.7139893
				c0.7790527,0.6760254,1.1690063,1.585022,1.1690063,2.7270203c0,1.3509827-0.3509521,2.3499756-1.052002,2.9989929
				c-0.7009888,0.6499939-1.5189819,1.0650024-2.4539795,1.2460022c-0.9349976,0.1829834-1.7919922,0.2999878-2.5709839,0.3509827
				c-2.493042,0-4.5709839-0.414978-6.2319946-1.2460022c-1.6630249-0.8299866-3.2470093-1.9989929-4.7529907-3.5059814
				c-0.8829956-0.8829956-1.7910156-1.3630066-2.7260132-1.4410095s-1.8190308,0.1430054-2.6489868,0.6620178
				c-1.2990112,0.8309937-1.973999,1.8179932-2.026001,2.9599915c-0.052002,1.1430054,0.1819458,2.0780029,0.7019653,2.8049927
				c2.0250244,2.7009888,4.5690308,4.5840149,7.6340332,5.6480103c3.0639648,1.0639954,6.1279907,1.5969849,9.1929932,1.5969849
				c2.440979,0,4.8299561-0.4809875,7.1669922-1.440979c2.3380127-0.9609985,4.2849731-2.3760071,5.8430176-4.2460022
				c1.55896-1.8700256,2.3379517-4.1289978,2.3379517-6.7780151
				C267.7603455,82.3738098,267.3433533,80.4908142,266.5133972,79.0108032"/>
		</g>
		<g>
			<path class="st0" d="M230.4425354,35.1111145L215.9524841,3.0141304
				c-0.4679565-1.0910035-1.1560059-1.8970033-2.0650024-2.4150085c-0.907959-0.519989-1.855957-0.7009888-2.8429565-0.5449829
				c-1.8179932,0.1029968-3.1420288,1.0899963-3.973999,2.9599915L192.502533,35.1111145
				c-0.1560059,0.3630066-0.2980347,0.7520142-0.4280396,1.1690063c-0.1289673,0.4150085-0.1950073,0.8040161-0.1950073,1.1679993
				c0,1.1940002,0.4030151,2.1940002,1.2070312,3c0.8059692,0.8040161,1.8579712,1.2070007,3.1560059,1.2070007
				c1.8689575,0.1029968,3.2459717-0.8840027,4.1289673-2.9599915l10.6610107-24.5220032l10.7630005,24.6000061
				c0.4160156,0.9849854,1.0390015,1.7259827,1.8690186,2.2200012c0.8319702,0.492981,1.7409668,0.7399902,2.7269897,0.7399902
				c1.4019775,0,2.5200195-0.4549866,3.3499756-1.3630066c0.8309937-0.9099731,1.2460327-1.8309937,1.2460327-2.7659912
				c0-0.571991-0.0640259-1.0650024-0.1940308-1.480011C230.6645203,35.7071228,230.5475159,35.3701172,230.4425354,35.1111145"/>
		</g>
		<g>
			<path d="M21.6188049,82.1311951c2.6679688,0,4.8299561-2.1629944,4.8299561-4.8299866V46.5632019
				c0-2.6679993-2.1619873-4.8299866-4.8299561-4.8299866c-2.6680298,0-4.8300171,2.1619873-4.8300171,4.8299866v30.7380066
				C16.7887878,79.9682007,18.9507751,82.1311951,21.6188049,82.1311951"/>
		</g>
	</g>
	<g>
		<path d="M7.4821472,107.5415344c0.1660156,0.0830078,0.2626953,0.2119141,0.2890625,0.3857422
			s-0.0166016,0.3320312-0.1298828,0.4755859c-0.0830078,0.1132812-0.1914062,0.1777344-0.3232422,0.1923828
			c-0.1318359,0.015625-0.2626953-0.0107422-0.390625-0.0791016c-0.2197266-0.1132812-0.4501953-0.2041016-0.6914062-0.2724609
			C5.993866,108.1763,5.73703,108.1421204,5.4645691,108.1421204c-0.4306641,0-0.8173828,0.0703125-1.1611328,0.2099609
			s-0.640625,0.3398438-0.8896484,0.6005859c-0.25,0.2607422-0.4404297,0.5683594-0.5722656,0.9238281
			c-0.1328125,0.3554688-0.1982422,0.7480469-0.1982422,1.1787109c0,0.4755859,0.0712891,0.8974609,0.2148438,1.2636719
			s0.3417969,0.6757812,0.5947266,0.9296875c0.2539062,0.2529297,0.5517578,0.4414062,0.8955078,0.5664062
			s0.7158203,0.1865234,1.1162109,0.1865234c0.2568359,0,0.5087891-0.0292969,0.7539062-0.0898438
			c0.2460938-0.0605469,0.4785156-0.1513672,0.6972656-0.2724609c0.1357422-0.0683594,0.2705078-0.0927734,0.4023438-0.0732422
			c0.1318359,0.0185547,0.2402344,0.0849609,0.3232422,0.1982422c0.1279297,0.1582031,0.1757812,0.3193359,0.1416016,0.4814453
			S7.6520691,114.5307922,7.493866,114.6138c-0.1884766,0.1064453-0.3964844,0.1962891-0.6230469,0.2724609
			c-0.2265625,0.0751953-0.4580078,0.1357422-0.6914062,0.1806641c-0.234375,0.0458984-0.4726562,0.0683594-0.7148438,0.0683594
			c-0.5439453,0-1.0576172-0.0908203-1.5410156-0.2714844c-0.4833984-0.1816406-0.9140625-0.4462891-1.2919922-0.7939453
			s-0.6748047-0.7744141-0.8896484-1.2802734c-0.2158203-0.5068359-0.3232422-1.0849609-0.3232422-1.734375
			c0-0.5820312,0.1005859-1.1201172,0.3007812-1.6152344s0.4833984-0.921875,0.8496094-1.28125
			c0.3662109-0.3583984,0.7949219-0.6376953,1.2861328-0.8378906s1.0283203-0.3007812,1.609375-0.3007812
			c0.3632812,0,0.7158203,0.0449219,1.0605469,0.1357422C6.868866,107.2466125,7.1882019,107.3755188,7.4821472,107.5415344z"/>
		<path d="M20.8112488,111.0552063c0,0.5742188-0.0947266,1.1083984-0.2832031,1.6035156
			c-0.1894531,0.4951172-0.4560547,0.9277344-0.7998047,1.2978516s-0.75,0.6591797-1.2177734,0.8671875
			c-0.46875,0.2080078-0.9824219,0.3115234-1.5419922,0.3115234c-0.5517578,0-1.0615234-0.1035156-1.5292969-0.3115234
			c-0.46875-0.2080078-0.875-0.4970703-1.21875-0.8671875s-0.6083984-0.8027344-0.7939453-1.2978516
			c-0.1845703-0.4951172-0.2773438-1.0292969-0.2773438-1.6035156s0.0927734-1.109375,0.2773438-1.6035156
			c0.1855469-0.4951172,0.4501953-0.9277344,0.7939453-1.2978516s0.75-0.6591797,1.21875-0.8671875
			c0.4677734-0.2080078,0.9775391-0.3115234,1.5292969-0.3115234c0.5595703,0,1.0732422,0.1035156,1.5419922,0.3115234
			c0.4677734,0.2080078,0.8740234,0.4970703,1.2177734,0.8671875s0.6103516,0.8027344,0.7998047,1.2978516
			C20.7165222,109.9458313,20.8112488,110.4809875,20.8112488,111.0552063z M19.5866394,111.0552063
			c0-0.5595703-0.1113281-1.0615234-0.3339844-1.5078125c-0.2226562-0.4453125-0.53125-0.796875-0.9238281-1.0537109
			s-0.8466797-0.3857422-1.3603516-0.3857422c-0.5058594,0-0.9560547,0.1289062-1.3486328,0.3857422
			s-0.6992188,0.6064453-0.9179688,1.0478516c-0.21875,0.4423828-0.328125,0.9472656-0.328125,1.5136719
			c0,0.5595703,0.109375,1.0615234,0.328125,1.5068359c0.21875,0.4462891,0.5253906,0.7978516,0.9179688,1.0546875
			s0.8427734,0.3847656,1.3486328,0.3847656c0.5136719,0,0.9677734-0.1279297,1.3603516-0.3847656
			s0.7011719-0.6083984,0.9238281-1.0546875C19.4753113,112.1167297,19.5866394,111.6147766,19.5866394,111.0552063z"/>
		<path d="M30.0827332,107.0884094c0.5517578,0,1.0390625,0.1035156,1.4619141,0.3115234s0.7763672,0.4951172,1.0595703,0.8613281
			s0.4970703,0.7900391,0.640625,1.2695312s0.2158203,0.9882812,0.2158203,1.5244141c0,0.7324219-0.1289062,1.3994141-0.3857422,2
			s-0.6347656,1.0791016-1.1337891,1.4345703c-0.4980469,0.3544922-1.1181641,0.5322266-1.8583984,0.5322266h-2.765625
			c-0.1582031,0-0.2949219-0.0546875-0.4082031-0.1640625s-0.1699219-0.2480469-0.1699219-0.4140625v-6.7773438
			c0-0.1669922,0.0566406-0.3046875,0.1699219-0.4140625s0.25-0.1640625,0.4082031-0.1640625H30.0827332z M29.9694519,113.9341125
			c0.5361328,0,0.9707031-0.1318359,1.3037109-0.3964844c0.3320312-0.2646484,0.5761719-0.6142578,0.7304688-1.0488281
			c0.1552734-0.4345703,0.2324219-0.9121094,0.2324219-1.4335938c0-0.3857422-0.0429688-0.75-0.1298828-1.09375
			s-0.2236328-0.6503906-0.4082031-0.9179688c-0.1855469-0.2685547-0.4199219-0.4804688-0.703125-0.6347656
			c-0.2832031-0.1552734-0.625-0.2324219-1.0253906-0.2324219h-2.1425781l0.1025391-0.1025391v5.9736328l-0.0683594-0.1132812
			H29.9694519z"/>
		<path d="M40.5671082,114.4438782c-0.0078125,0.1660156-0.0703125,0.3046875-0.1875,0.4140625
			s-0.2548828,0.1640625-0.4130859,0.1640625c-0.1738281,0-0.3164062-0.0546875-0.4257812-0.1640625
			s-0.1640625-0.2480469-0.1640625-0.4140625v-6.7773438c0-0.1669922,0.0566406-0.3046875,0.1699219-0.4140625
			s0.2607422-0.1640625,0.4423828-0.1640625c0.1513672,0,0.2851562,0.0546875,0.4023438,0.1640625
			s0.1757812,0.2470703,0.1757812,0.4140625V114.4438782z"/>
		<path d="M52.8747253,107.0884094c0.1513672,0,0.2744141,0.0507812,0.3691406,0.1523438
			c0.09375,0.1025391,0.1416016,0.2285156,0.1416016,0.3798828v6.8232422c0,0.1660156-0.0556641,0.3046875-0.1650391,0.4140625
			s-0.2470703,0.1640625-0.4130859,0.1640625c-0.0761719,0-0.1572266-0.0146484-0.2441406-0.0449219
			s-0.1523438-0.0722656-0.1982422-0.125l-4.6582031-6.0410156l0.2607422-0.1474609v5.8369141
			c0,0.1435547-0.0498047,0.2666016-0.1474609,0.3681641c-0.0986328,0.1025391-0.2226562,0.1533203-0.3740234,0.1533203
			c-0.1582031,0-0.2851562-0.0507812-0.3798828-0.1533203c-0.0947266-0.1015625-0.1416016-0.2246094-0.1416016-0.3681641v-6.8339844
			c0-0.1738281,0.0566406-0.3134766,0.1699219-0.4199219c0.1132812-0.1054688,0.25-0.1582031,0.4082031-0.1582031
			c0.0830078,0,0.171875,0.0166016,0.2666016,0.0507812c0.09375,0.0341797,0.1640625,0.0849609,0.2089844,0.1533203
			l4.5458984,5.9160156l-0.1708984,0.1582031v-5.7460938c0-0.1513672,0.0498047-0.2773438,0.1474609-0.3798828
			C52.5993347,107.1391907,52.7233582,107.0884094,52.8747253,107.0884094z"/>
		<path d="M63.4499207,115.1352844c-0.5742188,0-1.1103516-0.1035156-1.609375-0.3115234s-0.9345703-0.4990234-1.3085938-0.8730469
			s-0.6669922-0.8066406-0.8789062-1.2978516s-0.3173828-1.0234375-0.3173828-1.5976562s0.1054688-1.1074219,0.3173828-1.5986328
			s0.5048828-0.9238281,0.8789062-1.2978516s0.8095703-0.6640625,1.3085938-0.8720703s1.0351562-0.3115234,1.609375-0.3115234
			c0.3701172,0,0.7294922,0.0410156,1.0771484,0.1240234s0.6611328,0.2041016,0.9404297,0.3632812
			c0.0976562,0.0527344,0.1699219,0.1230469,0.2158203,0.2089844c0.0449219,0.0869141,0.0673828,0.171875,0.0673828,0.2558594
			c0,0.1582031-0.0507812,0.2958984-0.1523438,0.4130859c-0.1025391,0.1171875-0.2294922,0.1757812-0.3798828,0.1757812
			c-0.0537109,0-0.1083984-0.0078125-0.1650391-0.0224609c-0.0566406-0.015625-0.1074219-0.0341797-0.1523438-0.0566406
			c-0.2119141-0.1054688-0.4384766-0.1875-0.6806641-0.2441406c-0.2412109-0.0566406-0.4980469-0.0849609-0.7705078-0.0849609
			c-0.5439453,0-1.0351562,0.1308594-1.4736328,0.3916016s-0.7841797,0.6132812-1.0371094,1.0595703
			c-0.2529297,0.4453125-0.3789062,0.9443359-0.3789062,1.4960938c0,0.5439453,0.1259766,1.0410156,0.3789062,1.4902344
			s0.5986328,0.8046875,1.0371094,1.0654297s0.9296875,0.390625,1.4736328,0.390625
			c0.2646484,0,0.5439453-0.03125,0.8388672-0.0957031s0.5439453-0.1494141,0.7480469-0.2548828l-0.0908203,0.3056641v-2.1533203
			l0.1816406,0.1582031h-1.4853516c-0.1660156,0-0.3037109-0.0527344-0.4130859-0.1582031s-0.1640625-0.2421875-0.1640625-0.4082031
			s0.0546875-0.3017578,0.1640625-0.4082031c0.109375-0.1054688,0.2470703-0.1582031,0.4130859-0.1582031h1.9609375
			c0.1591797,0,0.2929688,0.0546875,0.4023438,0.1640625s0.1650391,0.2480469,0.1650391,0.4140625v2.515625
			c0,0.1210938-0.0302734,0.2236328-0.0908203,0.3066406s-0.1289062,0.1503906-0.2041016,0.203125
			c-0.3398438,0.2119141-0.7158203,0.3818359-1.1279297,0.5107422
			C64.3356628,115.0708313,63.9030457,115.1352844,63.4499207,115.1352844z"/>
		<path d="M79.8737488,108.1763c-0.1591797,0-0.2949219-0.0507812-0.4082031-0.1533203
			c-0.1132812-0.1015625-0.1699219-0.2363281-0.1699219-0.4023438c0-0.1582031,0.0566406-0.2871094,0.1699219-0.3847656
			c0.1132812-0.0986328,0.2490234-0.1474609,0.4082031-0.1474609h5.1572266c0.1582031,0,0.2919922,0.0507812,0.4023438,0.1523438
			c0.109375,0.1025391,0.1640625,0.2324219,0.1640625,0.3916016c0,0.1660156-0.0546875,0.2978516-0.1640625,0.3964844
			c-0.1103516,0.0986328-0.2441406,0.1474609-0.4023438,0.1474609H79.8737488z M82.4460144,115.0220032
			c-0.1806641,0-0.3261719-0.0546875-0.4365234-0.1640625c-0.109375-0.109375-0.1640625-0.2480469-0.1640625-0.4140625v-6.7890625
			h1.2128906v6.7890625c0,0.1660156-0.0585938,0.3046875-0.1757812,0.4140625S82.6198425,115.0220032,82.4460144,115.0220032z"/>
		<path d="M92.0241394,107.0884094c0.1513672,0,0.2851562,0.0546875,0.4023438,0.1640625s0.1757812,0.2470703,0.1757812,0.4140625
			v6.7773438c-0.0078125,0.1660156-0.0703125,0.3046875-0.1875,0.4140625s-0.2548828,0.1640625-0.4130859,0.1640625
			c-0.1738281,0-0.3164062-0.0546875-0.4257812-0.1640625s-0.1640625-0.2480469-0.1640625-0.4140625v-6.7773438
			c0-0.1669922,0.0566406-0.3046875,0.1699219-0.4140625S91.8424988,107.0884094,92.0241394,107.0884094z M91.978241,110.4653625
			h5.1689453l-0.0117188,1.0878906h-5.1679688L91.978241,110.4653625z M97.1354675,107.0884094
			c0.1816406,0,0.3251953,0.0546875,0.4306641,0.1640625c0.1064453,0.109375,0.1591797,0.2470703,0.1591797,0.4140625v6.7773438
			c0,0.1660156-0.0546875,0.3046875-0.1650391,0.4140625c-0.109375,0.109375-0.2548828,0.1640625-0.4355469,0.1640625
			c-0.1591797,0-0.2949219-0.0546875-0.4082031-0.1640625s-0.1699219-0.2480469-0.1699219-0.4140625v-6.7773438
			c0-0.1669922,0.0585938-0.3046875,0.1757812-0.4140625C96.8385925,107.1430969,96.9772644,107.0884094,97.1354675,107.0884094z"/>
		<path d="M104.6725769,107.0884094h3.921875c0.1582031,0,0.2929688,0.0527344,0.4023438,0.1582031
			c0.109375,0.1064453,0.1640625,0.2382812,0.1640625,0.3964844c0,0.1591797-0.0546875,0.2871094-0.1640625,0.3857422
			s-0.2441406,0.1474609-0.4023438,0.1474609h-3.4228516l0.1132812-0.1923828v2.5380859l-0.1025391-0.1132812h2.9013672
			c0.1591797,0,0.2929688,0.0527344,0.4033203,0.1591797c0.109375,0.1054688,0.1640625,0.2412109,0.1640625,0.4082031
			c0,0.1582031-0.0546875,0.2871094-0.1640625,0.3847656c-0.1103516,0.0986328-0.2441406,0.1474609-0.4033203,0.1474609H105.20578
			l0.0791016-0.1015625v2.6181641l-0.0791016-0.0908203h3.3886719c0.1582031,0,0.2929688,0.0546875,0.4023438,0.1640625
			s0.1640625,0.2363281,0.1640625,0.3798828c0,0.1582031-0.0546875,0.2890625-0.1640625,0.390625
			c-0.109375,0.1025391-0.2441406,0.1533203-0.4023438,0.1533203h-3.921875c-0.1582031,0-0.2949219-0.0546875-0.4082031-0.1640625
			s-0.1699219-0.2480469-0.1699219-0.4140625v-6.7773438c0-0.1669922,0.0566406-0.3046875,0.1699219-0.4140625
			S104.5143738,107.0884094,104.6725769,107.0884094z"/>
		<path d="M123.384491,115.0220032c-0.1806641,0-0.3271484-0.0546875-0.4365234-0.1640625s-0.1640625-0.2480469-0.1640625-0.4140625
			v-6.7773438c0-0.1669922,0.0566406-0.3046875,0.1699219-0.4140625s0.25-0.1640625,0.4082031-0.1640625h3.8310547
			c0.1660156,0,0.3037109,0.0527344,0.4140625,0.1582031c0.109375,0.1064453,0.1640625,0.2382812,0.1640625,0.3964844
			c0,0.1435547-0.0546875,0.2685547-0.1640625,0.3740234c-0.1103516,0.1064453-0.2480469,0.1591797-0.4140625,0.1591797h-3.3095703
			l0.0791016-0.1132812v2.5273438l-0.0673828-0.1357422h2.7880859c0.1660156,0,0.3037109,0.0527344,0.4130859,0.1582031
			c0.109375,0.1064453,0.1650391,0.2382812,0.1650391,0.3964844c0,0.1435547-0.0556641,0.2685547-0.1650391,0.3740234
			c-0.109375,0.1064453-0.2470703,0.1591797-0.4130859,0.1591797h-2.8115234l0.0908203-0.0908203v2.9921875
			c0,0.1660156-0.0566406,0.3046875-0.1699219,0.4140625S123.5436707,115.0220032,123.384491,115.0220032z"/>
		<path d="M139.3766785,107.0766907c0.1660156,0,0.2988281,0.0546875,0.3974609,0.1640625
			c0.0976562,0.1103516,0.1464844,0.2480469,0.1464844,0.4140625v4.2958984c0,0.6044922-0.1318359,1.1445312-0.3964844,1.6201172
			c-0.2646484,0.4765625-0.6269531,0.8486328-1.0878906,1.1171875c-0.4609375,0.2675781-0.9931641,0.4023438-1.5976562,0.4023438
			c-0.5976562,0-1.1279297-0.1347656-1.5927734-0.4023438c-0.4648438-0.2685547-0.8310547-0.640625-1.0996094-1.1171875
			c-0.2685547-0.4755859-0.4023438-1.015625-0.4023438-1.6201172v-4.2958984c0-0.1660156,0.0566406-0.3037109,0.1699219-0.4140625
			c0.1132812-0.109375,0.2607422-0.1640625,0.4423828-0.1640625c0.1435547,0,0.2734375,0.0546875,0.390625,0.1640625
			c0.1171875,0.1103516,0.1757812,0.2480469,0.1757812,0.4140625v4.2958984c0,0.4003906,0.0888672,0.75,0.2666016,1.0478516
			c0.1777344,0.2988281,0.4140625,0.5332031,0.7080078,0.703125c0.2949219,0.1699219,0.6083984,0.2548828,0.9414062,0.2548828
			c0.3623047,0,0.6943359-0.0849609,0.9970703-0.2548828c0.3017578-0.1699219,0.5458984-0.4042969,0.7314453-0.703125
			c0.1845703-0.2978516,0.2773438-0.6474609,0.2773438-1.0478516v-4.2958984c0-0.1660156,0.046875-0.3037109,0.1416016-0.4140625
			C139.08078,107.1313782,139.2106628,107.0766907,139.3766785,107.0766907z"/>
		<path d="M146.3141785,108.1763c-0.1591797,0-0.2949219-0.0507812-0.4082031-0.1533203
			c-0.1132812-0.1015625-0.1699219-0.2363281-0.1699219-0.4023438c0-0.1582031,0.0566406-0.2871094,0.1699219-0.3847656
			c0.1132812-0.0986328,0.2490234-0.1474609,0.4082031-0.1474609h5.1572266c0.1582031,0,0.2919922,0.0507812,0.4023438,0.1523438
			c0.109375,0.1025391,0.1640625,0.2324219,0.1640625,0.3916016c0,0.1660156-0.0546875,0.2978516-0.1640625,0.3964844
			c-0.1103516,0.0986328-0.2441406,0.1474609-0.4023438,0.1474609H146.3141785z M148.8864441,115.0220032
			c-0.1806641,0-0.3261719-0.0546875-0.4365234-0.1640625c-0.109375-0.109375-0.1640625-0.2480469-0.1640625-0.4140625v-6.7890625
			h1.2128906v6.7890625c0,0.1660156-0.0585938,0.3046875-0.1757812,0.4140625S149.0602722,115.0220032,148.8864441,115.0220032z"/>
		<path d="M163.4850769,107.0766907c0.1660156,0,0.2988281,0.0546875,0.3974609,0.1640625
			c0.0976562,0.1103516,0.1464844,0.2480469,0.1464844,0.4140625v4.2958984c0,0.6044922-0.1318359,1.1445312-0.3964844,1.6201172
			c-0.2646484,0.4765625-0.6269531,0.8486328-1.0878906,1.1171875c-0.4609375,0.2675781-0.9931641,0.4023438-1.5976562,0.4023438
			c-0.5976562,0-1.1279297-0.1347656-1.5927734-0.4023438c-0.4648438-0.2685547-0.8310547-0.640625-1.0996094-1.1171875
			c-0.2685547-0.4755859-0.4023438-1.015625-0.4023438-1.6201172v-4.2958984c0-0.1660156,0.0566406-0.3037109,0.1699219-0.4140625
			c0.1132812-0.109375,0.2607422-0.1640625,0.4423828-0.1640625c0.1435547,0,0.2734375,0.0546875,0.390625,0.1640625
			c0.1171875,0.1103516,0.1757812,0.2480469,0.1757812,0.4140625v4.2958984c0,0.4003906,0.0888672,0.75,0.2666016,1.0478516
			c0.1777344,0.2988281,0.4140625,0.5332031,0.7080078,0.703125c0.2949219,0.1699219,0.6083984,0.2548828,0.9414062,0.2548828
			c0.3623047,0,0.6943359-0.0849609,0.9970703-0.2548828c0.3017578-0.1699219,0.5458984-0.4042969,0.7314453-0.703125
			c0.1845703-0.2978516,0.2773438-0.6474609,0.2773438-1.0478516v-4.2958984c0-0.1660156,0.046875-0.3037109,0.1416016-0.4140625
			C163.1891785,107.1313782,163.3190613,107.0766907,163.4850769,107.0766907z"/>
		<path d="M171.0895691,115.0220032c-0.1806641,0-0.3398438-0.0546875-0.4755859-0.1640625
			s-0.2041016-0.2480469-0.2041016-0.4140625v-6.7773438c0-0.1669922,0.0566406-0.3046875,0.1699219-0.4140625
			s0.25-0.1640625,0.4082031-0.1640625h3.1962891c0.4082031,0,0.7822266,0.0996094,1.1220703,0.2998047
			s0.6142578,0.4765625,0.8212891,0.8271484c0.2080078,0.3515625,0.3125,0.7539062,0.3125,1.2080078
			c0,0.3017578-0.0605469,0.5908203-0.1816406,0.8662109c-0.1210938,0.2763672-0.2832031,0.5195312-0.4873047,0.7314453
			s-0.4345703,0.3701172-0.6914062,0.4755859l-0.125-0.2148438c0.234375,0.0830078,0.4384766,0.2021484,0.6123047,0.3574219
			c0.1738281,0.1542969,0.3115234,0.3359375,0.4140625,0.5439453c0.1015625,0.2080078,0.15625,0.4433594,0.1640625,0.7080078
			c0.0224609,0.234375,0.0429688,0.4287109,0.0625,0.5839844c0.0185547,0.1542969,0.046875,0.28125,0.0849609,0.3798828
			c0.0371094,0.0976562,0.1054688,0.1738281,0.2041016,0.2265625c0.1357422,0.0751953,0.2207031,0.1884766,0.2548828,0.3398438
			s0.0019531,0.2871094-0.0966797,0.4082031c-0.0683594,0.0908203-0.1533203,0.1494141-0.2548828,0.1757812
			s-0.2060547,0.0292969-0.3115234,0.0107422c-0.1064453-0.0185547-0.1962891-0.046875-0.2724609-0.0849609
			c-0.1210938-0.0751953-0.2431641-0.1826172-0.3681641-0.3232422c-0.125-0.1396484-0.2246094-0.3339844-0.2998047-0.5830078
			c-0.0761719-0.25-0.1142578-0.578125-0.1142578-0.9863281c0-0.1884766-0.0302734-0.3515625-0.0898438-0.4873047
			c-0.0605469-0.1357422-0.1435547-0.2470703-0.25-0.3349609c-0.1054688-0.0859375-0.2304688-0.1503906-0.3740234-0.1923828
			c-0.1435547-0.0410156-0.3017578-0.0625-0.4755859-0.0625h-2.4033203l0.1591797-0.2265625v2.7089844
			c0,0.1660156-0.0458984,0.3046875-0.1367188,0.4140625C171.3737488,114.9673157,171.2487488,115.0220032,171.0895691,115.0220032z
			 M171.4528503,110.9761047h2.7089844c0.1738281-0.0078125,0.3417969-0.078125,0.5039062-0.2099609
			c0.1630859-0.1318359,0.2949219-0.3115234,0.3964844-0.5380859c0.1025391-0.2275391,0.1533203-0.484375,0.1533203-0.7714844
			c0-0.3623047-0.1074219-0.6660156-0.3232422-0.9121094c-0.2148438-0.2451172-0.4697266-0.3681641-0.7646484-0.3681641h-2.6523438
			l0.125-0.2949219v3.3320312L171.4528503,110.9761047z"/>
		<path d="M183.2292175,107.0884094h3.921875c0.1582031,0,0.2929688,0.0527344,0.4023438,0.1582031
			c0.109375,0.1064453,0.1640625,0.2382812,0.1640625,0.3964844c0,0.1591797-0.0546875,0.2871094-0.1640625,0.3857422
			s-0.2441406,0.1474609-0.4023438,0.1474609h-3.4228516l0.1132812-0.1923828v2.5380859l-0.1025391-0.1132812h2.9013672
			c0.1591797,0,0.2929688,0.0527344,0.4033203,0.1591797c0.109375,0.1054688,0.1640625,0.2412109,0.1640625,0.4082031
			c0,0.1582031-0.0546875,0.2871094-0.1640625,0.3847656c-0.1103516,0.0986328-0.2441406,0.1474609-0.4033203,0.1474609h-2.8779297
			l0.0791016-0.1015625v2.6181641l-0.0791016-0.0908203h3.3886719c0.1582031,0,0.2929688,0.0546875,0.4023438,0.1640625
			s0.1640625,0.2363281,0.1640625,0.3798828c0,0.1582031-0.0546875,0.2890625-0.1640625,0.390625
			c-0.109375,0.1025391-0.2441406,0.1533203-0.4023438,0.1533203h-3.921875c-0.1582031,0-0.2949219-0.0546875-0.4082031-0.1640625
			s-0.1699219-0.2480469-0.1699219-0.4140625v-6.7773438c0-0.1669922,0.0566406-0.3046875,0.1699219-0.4140625
			S183.0710144,107.0884094,183.2292175,107.0884094z"/>
		<path d="M194.9831238,114.9878235c0,0.234375-0.0683594,0.46875-0.2041016,0.703125s-0.3056641,0.4287109-0.5097656,0.5830078
			c-0.2041016,0.1552734-0.4199219,0.2324219-0.6464844,0.2324219c-0.0751953,0-0.1523438-0.0283203-0.2324219-0.0849609
			c-0.0791016-0.0566406-0.1191406-0.1601562-0.1191406-0.3115234s0.0478516-0.2402344,0.1425781-0.2666016
			c0.09375-0.0263672,0.1865234-0.0615234,0.2773438-0.1074219c0.1054688-0.0527344,0.1884766-0.1191406,0.2490234-0.1982422
			s0.0908203-0.171875,0.0908203-0.2773438c0-0.0908203-0.0361328-0.1669922-0.1074219-0.2265625
			c-0.0722656-0.0605469-0.1640625-0.0908203-0.2783203-0.0908203c-0.0449219,0-0.0957031,0.0058594-0.1523438,0.0166016
			c-0.0566406,0.0117188-0.1074219,0.0322266-0.1533203,0.0625c-0.0683594-0.0380859-0.125-0.0830078-0.1699219-0.1357422
			s-0.0683594-0.1328125-0.0683594-0.2382812c0.0078125-0.1962891,0.1044922-0.3681641,0.2890625-0.515625
			c0.1855469-0.1474609,0.3984375-0.2207031,0.640625-0.2207031c0.2871094,0,0.5175781,0.1015625,0.6914062,0.3056641
			S194.9831238,114.6782532,194.9831238,114.9878235z"/>
		<path d="M207.4616394,108.1763c-0.1591797,0-0.2949219-0.0507812-0.4082031-0.1533203
			c-0.1132812-0.1015625-0.1699219-0.2363281-0.1699219-0.4023438c0-0.1582031,0.0566406-0.2871094,0.1699219-0.3847656
			c0.1132812-0.0986328,0.2490234-0.1474609,0.4082031-0.1474609h5.1572266c0.1582031,0,0.2919922,0.0507812,0.4023438,0.1523438
			c0.109375,0.1025391,0.1640625,0.2324219,0.1640625,0.3916016c0,0.1660156-0.0546875,0.2978516-0.1640625,0.3964844
			c-0.1103516,0.0986328-0.2441406,0.1474609-0.4023438,0.1474609H207.4616394z M210.033905,115.0220032
			c-0.1806641,0-0.3261719-0.0546875-0.4365234-0.1640625c-0.109375-0.109375-0.1640625-0.2480469-0.1640625-0.4140625v-6.7890625
			h1.2128906v6.7890625c0,0.1660156-0.0585938,0.3046875-0.1757812,0.4140625S210.2077332,115.0220032,210.033905,115.0220032z"/>
		<path d="M226.0046082,111.0552063c0,0.5742188-0.0947266,1.1083984-0.2832031,1.6035156
			c-0.1894531,0.4951172-0.4560547,0.9277344-0.7998047,1.2978516s-0.75,0.6591797-1.2177734,0.8671875
			c-0.46875,0.2080078-0.9824219,0.3115234-1.5419922,0.3115234c-0.5517578,0-1.0615234-0.1035156-1.5292969-0.3115234
			c-0.46875-0.2080078-0.875-0.4970703-1.21875-0.8671875s-0.6083984-0.8027344-0.7939453-1.2978516
			c-0.1845703-0.4951172-0.2773438-1.0292969-0.2773438-1.6035156s0.0927734-1.109375,0.2773438-1.6035156
			c0.1855469-0.4951172,0.4501953-0.9277344,0.7939453-1.2978516s0.75-0.6591797,1.21875-0.8671875
			c0.4677734-0.2080078,0.9775391-0.3115234,1.5292969-0.3115234c0.5595703,0,1.0732422,0.1035156,1.5419922,0.3115234
			c0.4677734,0.2080078,0.8740234,0.4970703,1.2177734,0.8671875s0.6103516,0.8027344,0.7998047,1.2978516
			C225.9098816,109.9458313,226.0046082,110.4809875,226.0046082,111.0552063z M224.7799988,111.0552063
			c0-0.5595703-0.1113281-1.0615234-0.3339844-1.5078125c-0.2226562-0.4453125-0.53125-0.796875-0.9238281-1.0537109
			s-0.8466797-0.3857422-1.3603516-0.3857422c-0.5058594,0-0.9560547,0.1289062-1.3486328,0.3857422
			s-0.6992188,0.6064453-0.9179688,1.0478516c-0.21875,0.4423828-0.328125,0.9472656-0.328125,1.5136719
			c0,0.5595703,0.109375,1.0615234,0.328125,1.5068359c0.21875,0.4462891,0.5253906,0.7978516,0.9179688,1.0546875
			s0.8427734,0.3847656,1.3486328,0.3847656c0.5136719,0,0.9677734-0.1279297,1.3603516-0.3847656
			s0.7011719-0.6083984,0.9238281-1.0546875C224.6686707,112.1167297,224.7799988,111.6147766,224.7799988,111.0552063z"/>
		<path d="M235.275116,107.0884094c0.5517578,0,1.0390625,0.1035156,1.4619141,0.3115234s0.7763672,0.4951172,1.0595703,0.8613281
			s0.4970703,0.7900391,0.640625,1.2695312s0.2158203,0.9882812,0.2158203,1.5244141c0,0.7324219-0.1289062,1.3994141-0.3857422,2
			s-0.6347656,1.0791016-1.1337891,1.4345703c-0.4980469,0.3544922-1.1181641,0.5322266-1.8583984,0.5322266h-2.765625
			c-0.1582031,0-0.2949219-0.0546875-0.4082031-0.1640625s-0.1699219-0.2480469-0.1699219-0.4140625v-6.7773438
			c0-0.1669922,0.0566406-0.3046875,0.1699219-0.4140625s0.25-0.1640625,0.4082031-0.1640625H235.275116z M235.1618347,113.9341125
			c0.5361328,0,0.9707031-0.1318359,1.3037109-0.3964844c0.3320312-0.2646484,0.5761719-0.6142578,0.7304688-1.0488281
			c0.1552734-0.4345703,0.2324219-0.9121094,0.2324219-1.4335938c0-0.3857422-0.0429688-0.75-0.1298828-1.09375
			s-0.2236328-0.6503906-0.4082031-0.9179688c-0.1855469-0.2685547-0.4199219-0.4804688-0.703125-0.6347656
			c-0.2832031-0.1552734-0.625-0.2324219-1.0253906-0.2324219h-2.1425781l0.1025391-0.1025391v5.9736328l-0.0683594-0.1132812
			H235.1618347z"/>
		<path d="M247.3581238,108.5610657l-2.5507812,6.1210938c-0.0449219,0.1210938-0.1132812,0.2148438-0.2041016,0.2832031
			s-0.1923828,0.1015625-0.3056641,0.1015625c-0.1660156,0-0.2910156-0.046875-0.3740234-0.1416016
			c-0.0830078-0.09375-0.1289062-0.2128906-0.1357422-0.3564453c0-0.0527344,0.0107422-0.1132812,0.0341797-0.1816406
			l2.8779297-6.9589844c0.0537109-0.1289062,0.1308594-0.2265625,0.2324219-0.2949219
			c0.1025391-0.0683594,0.2138672-0.0976562,0.3349609-0.0908203c0.1132812,0,0.21875,0.0341797,0.3173828,0.1025391
			c0.0976562,0.0673828,0.1699219,0.1621094,0.2148438,0.2832031l2.8447266,6.8574219
			c0.0302734,0.0751953,0.0458984,0.1503906,0.0458984,0.2265625c0,0.1660156-0.0546875,0.2998047-0.1640625,0.4023438
			c-0.1103516,0.1015625-0.2324219,0.1523438-0.3691406,0.1523438c-0.1132812,0-0.2167969-0.0351562-0.3115234-0.1074219
			c-0.0947266-0.0712891-0.1640625-0.1640625-0.2089844-0.2773438l-2.5732422-6.0869141L247.3581238,108.5610657z
			 M245.2614441,113.0727844l0.5097656-1.0878906h3.2070312l0.1933594,1.0878906H245.2614441z"/>
		<path d="M260.79953,107.0542297c0.1435547,0,0.2734375,0.0546875,0.390625,0.1640625s0.1757812,0.2480469,0.1757812,0.4140625
			c0,0.0605469-0.0087891,0.1191406-0.0283203,0.1757812c-0.0185547,0.0566406-0.046875,0.1152344-0.0849609,0.1757812
			l-2.5957031,3.671875l0.1816406-0.6689453v3.4570312c0,0.1660156-0.0566406,0.3046875-0.1699219,0.4140625
			s-0.2421875,0.1640625-0.3857422,0.1640625c-0.1582031,0-0.2929688-0.0546875-0.4023438-0.1640625
			s-0.1640625-0.2480469-0.1640625-0.4140625v-3.3662109l0.0791016,0.3291016l-2.5048828-3.34375
			c-0.0605469-0.0830078-0.1015625-0.1611328-0.1240234-0.2324219c-0.0224609-0.0722656-0.0341797-0.1416016-0.0341797-0.2099609
			c0-0.1660156,0.0664062-0.3017578,0.1982422-0.4082031c0.1318359-0.1054688,0.2666016-0.1582031,0.4023438-0.1582031
			c0.1816406,0,0.3359375,0.0869141,0.4648438,0.2607422l2.2666016,3.1054688l-0.2714844-0.0341797l2.1308594-3.0605469
			C260.4518738,107.14505,260.6110535,107.0542297,260.79953,107.0542297z"/>
	</g>
</g>
</svg>
