<svg width="30" height="30" viewBox="0 0 30 30" fill="none" xmlns="http://www.w3.org/2000/svg">
<path d="M10.8398 14.625C11.8046 16.6172 13.4155 18.224 15.4102 19.1836C15.5573 19.2532 15.72 19.2834 15.8824 19.2711C16.0447 19.2587 16.201 19.2043 16.3359 19.1133L19.2656 17.1562C19.3951 17.0684 19.5446 17.0149 19.7004 17.0005C19.8561 16.9862 20.013 17.0115 20.1562 17.0742L25.6406 19.4297C25.8281 19.5077 25.9847 19.6451 26.0863 19.8209C26.1879 19.9967 26.229 20.2009 26.2031 20.4023C26.0293 21.759 25.3671 23.0059 24.3404 23.9097C23.3137 24.8135 21.9928 25.3122 20.625 25.3125C16.3981 25.3125 12.3443 23.6334 9.35549 20.6445C6.36662 17.6556 4.6875 13.6019 4.6875 9.37498C4.68781 8.00716 5.1865 6.68632 6.09026 5.65961C6.99403 4.6329 8.24093 3.97068 9.59766 3.79685C9.79903 3.77099 10.0033 3.81203 10.1791 3.91367C10.3548 4.01531 10.4923 4.17191 10.5703 4.35935L12.9258 9.85545C12.987 9.99648 13.0127 10.1504 13.0004 10.3037C12.9881 10.457 12.9384 10.6049 12.8555 10.7344L10.8984 13.7109C10.8113 13.8455 10.7602 14.0003 10.7499 14.1603C10.7397 14.3203 10.7706 14.4803 10.8398 14.625V14.625Z" stroke="white" stroke-opacity="0.95" stroke-width="2" stroke-linecap="round" stroke-linejoin="round"/>
</svg>
