<svg width="15" height="14" viewBox="0 0 15 14" fill="none" xmlns="http://www.w3.org/2000/svg">
<path d="M13.8422 2.91796C13.3799 3.12284 12.8832 3.26128 12.361 3.32385C12.8998 3.00146 13.3029 2.49407 13.4951 1.89634C12.9889 2.197 12.4349 2.40864 11.8571 2.52205C11.4686 2.10723 10.954 1.83228 10.3932 1.73989C9.83247 1.6475 9.25687 1.74284 8.75582 2.0111C8.25478 2.27936 7.85631 2.70553 7.62229 3.22346C7.38828 3.74138 7.3318 4.32208 7.46163 4.87539C6.43595 4.82389 5.43256 4.5573 4.51658 4.09292C3.6006 3.62854 2.79251 2.97675 2.14473 2.17984C1.92324 2.56192 1.79588 3.0049 1.79588 3.47668C1.79564 3.90138 1.90022 4.31958 2.10037 4.69418C2.30051 5.06877 2.59002 5.38817 2.94321 5.62403C2.5336 5.611 2.13303 5.50032 1.77484 5.30121V5.33443C1.7748 5.9301 1.98085 6.50744 2.35802 6.96848C2.73519 7.42953 3.26026 7.74588 3.84412 7.86386C3.46415 7.9667 3.06577 7.98185 2.67908 7.90816C2.84381 8.4207 3.1647 8.8689 3.59681 9.19C4.02892 9.51111 4.55063 9.68905 5.0889 9.69892C4.17516 10.4162 3.04669 10.8053 1.88503 10.8036C1.67926 10.8037 1.47366 10.7916 1.26929 10.7676C2.44844 11.5258 3.82105 11.9281 5.22291 11.9266C9.96836 11.9266 12.5626 7.99621 12.5626 4.58745C12.5626 4.47671 12.5598 4.36486 12.5548 4.25411C13.0594 3.88919 13.495 3.4373 13.8411 2.91963L13.8422 2.91796Z" fill="#1a2235"/>
</svg>
