<svg width="15" height="15" viewBox="0 0 15 15" fill="none" xmlns="http://www.w3.org/2000/svg">
<path fill-rule="evenodd" clip-rule="evenodd" d="M1.47461 2.49236C1.47461 2.22244 1.58184 1.96357 1.7727 1.7727C1.96357 1.58184 2.22244 1.47461 2.49236 1.47461H12.6378C12.7715 1.47439 12.904 1.50056 13.0277 1.55162C13.1513 1.60267 13.2637 1.67761 13.3583 1.77215C13.4529 1.86668 13.528 1.97896 13.5792 2.10254C13.6304 2.22613 13.6567 2.3586 13.6566 2.49236V12.6378C13.6568 12.7716 13.6305 12.9041 13.5794 13.0277C13.5283 13.1514 13.4533 13.2637 13.3587 13.3583C13.2642 13.453 13.1518 13.528 13.0282 13.5792C12.9046 13.6304 12.7721 13.6567 12.6383 13.6566H2.49236C2.35866 13.6566 2.22627 13.6303 2.10276 13.5791C1.97924 13.5279 1.86702 13.4529 1.77251 13.3583C1.67799 13.2638 1.60304 13.1515 1.55192 13.028C1.50081 12.9044 1.47454 12.772 1.47461 12.6383V2.49236ZM6.29647 6.11928H7.94603V6.94766C8.18413 6.47145 8.79323 6.04287 9.70855 6.04287C11.4633 6.04287 11.8792 6.9914 11.8792 8.73177V11.9556H10.1034V9.12824C10.1034 8.13707 9.86525 7.5778 9.26058 7.5778C8.42168 7.5778 8.07283 8.18081 8.07283 9.12824V11.9556H6.29647V6.11928ZM3.25097 11.8797H5.02733V6.04287H3.25097V11.8792V11.8797ZM5.28149 4.13915C5.28484 4.29124 5.25778 4.44248 5.20189 4.58397C5.146 4.72546 5.06241 4.85437 4.95603 4.96312C4.84964 5.07187 4.72261 5.15827 4.58238 5.21726C4.44216 5.27625 4.29156 5.30664 4.13943 5.30664C3.9873 5.30664 3.8367 5.27625 3.69647 5.21726C3.55624 5.15827 3.42921 5.07187 3.32283 4.96312C3.21644 4.85437 3.13286 4.72546 3.07697 4.58397C3.02108 4.44248 2.99401 4.29124 2.99736 4.13915C3.00394 3.84061 3.12715 3.55651 3.34061 3.3477C3.55407 3.13889 3.84081 3.02196 4.13943 3.02196C4.43804 3.02196 4.72478 3.13889 4.93824 3.3477C5.15171 3.55651 5.27492 3.84061 5.28149 4.13915V4.13915Z" fill="#1a2235"/>
</svg>
