<svg width="15" height="15" viewBox="0 0 15 15" fill="none" xmlns="http://www.w3.org/2000/svg">
<path d="M5.06542 1.76709C3.20752 1.76709 1.6958 3.2797 1.6958 5.13806V9.95258C1.6958 11.8107 3.20841 13.3226 5.06677 13.3226H9.88129C11.7394 13.3226 13.2514 11.81 13.2514 9.95167V5.13671C13.2514 3.27881 11.7387 1.76709 9.88038 1.76709H5.06542ZM10.9402 3.61598C11.1954 3.61598 11.4025 3.82305 11.4025 4.0782C11.4025 4.33335 11.1954 4.54042 10.9402 4.54042C10.6851 4.54042 10.478 4.33335 10.478 4.0782C10.478 3.82305 10.6851 3.61598 10.9402 3.61598ZM7.47358 4.54042C9.13065 4.54042 10.478 5.8878 10.478 7.54487C10.478 9.20194 9.13041 10.5493 7.47358 10.5493C5.81651 10.5493 4.46913 9.2017 4.46913 7.54487C4.46913 5.88803 5.81651 4.54042 7.47358 4.54042ZM7.47358 5.46487C6.32473 5.46487 5.39358 6.39601 5.39358 7.54487C5.39358 8.69372 6.32473 9.62487 7.47358 9.62487C8.62243 9.62487 9.55358 8.69372 9.55358 7.54487C9.55358 6.39601 8.62243 5.46487 7.47358 5.46487Z" fill="#1a2235"/>
</svg>
